<svg width="100" height="100" viewBox="0 0 100 100" fill="none" xmlns="http://www.w3.org/2000/svg">
<circle cx="20" cy="20" r="3" fill="white"/>
<circle cx="20" cy="65" r="3" fill="white"/>
<circle cx="65" cy="20" r="3" fill="white"/>
<circle cx="65" cy="65" r="3" fill="white"/>
<circle cx="20" cy="35" r="3" fill="white"/>
<circle cx="20" cy="80" r="3" fill="white"/>
<circle cx="65" cy="35" r="3" fill="white"/>
<circle cx="65" cy="80" r="3" fill="white"/>
<circle cx="20" cy="50" r="3" fill="white"/>
<circle cx="65" cy="50" r="3" fill="white"/>
<circle cx="35" cy="20" r="3" fill="white"/>
<circle cx="35" cy="65" r="3" fill="white"/>
<circle cx="80" cy="20" r="3" fill="white"/>
<circle cx="80" cy="65" r="3" fill="white"/>
<circle cx="35" cy="35" r="3" fill="white"/>
<circle cx="35" cy="80" r="3" fill="white"/>
<circle cx="80" cy="35" r="3" fill="white"/>
<circle cx="80" cy="80" r="3" fill="white"/>
<circle cx="35" cy="50" r="3" fill="white"/>
<circle cx="80" cy="50" r="3" fill="white"/>
<circle cx="50" cy="20" r="3" fill="white"/>
<circle cx="50" cy="65" r="3" fill="white"/>
<circle cx="50" cy="35" r="3" fill="white"/>
<circle cx="50" cy="80" r="3" fill="white"/>
<circle cx="50" cy="50" r="3" fill="white"/>
</svg>
